# xmcd
# 
# Track frame offsets:
#     150
#     32470
#     55677
#     64587
#     93897
#     121187
#     139590
#     178487
#     188867
#     212305
# 
# Disc length: 3484
# 
# Revision: 3
# Processed by: cddbd v1.5.2PL0 Copyright (c) Steve Scherf et al.
# Submitted via: fre:ac v1.0.17
# 
DISCID=7f0d9a0a
DTITLE=Jan Garbarek and The Hilliard Ensemble - Mnemosyne ( CD1)
DYEAR=1999
DGENRE=Jazz
TTITLE0=Quechua Song
TTITLE1=O Lord in Thee is all My Trust
TTITLE2=Estonian Lullaby
TTITLE3=Remember Me My Dear
TTITLE4=Gloria
TTITLE5=Fayrfax Africanus
TTITLE6=Agnus Dei
TTITLE7=Novus novus
TTITLE8=Se je fayz dueil
TTITLE9=O ignis spiritus
EXTD=
EXTT0=
EXTT1=
EXTT2=
EXTT3=
EXTT4=
EXTT5=
EXTT6=
EXTT7=
EXTT8=
EXTT9=
PLAYORDER=
